<mxfile host="app.diagrams.net" modified="2024-04-01T07:16:59.203Z" agent="Mozilla/5.0 (Windows NT 10.0; Win64; x64) AppleWebKit/537.36 (KHTML, like Gecko) Chrome/123.0.0.0 Safari/537.36" etag="95QuHHkzK7CTce80y_0Z" version="24.0.2" type="device">
  <diagram id="C5RBs43oDa-KdzZeNtuy" name="Page-1">
    <mxGraphModel dx="1195" dy="622" grid="1" gridSize="10" guides="1" tooltips="1" connect="1" arrows="1" fold="1" page="1" pageScale="1" pageWidth="827" pageHeight="1169" math="0" shadow="0">
      <root>
        <mxCell id="WIyWlLk6GJQsqaUBKTNV-0" />
        <mxCell id="WIyWlLk6GJQsqaUBKTNV-1" parent="WIyWlLk6GJQsqaUBKTNV-0" />
        <mxCell id="zkfFHV4jXpPFQw0GAbJ--0" value="Person" style="swimlane;fontStyle=2;align=center;verticalAlign=top;childLayout=stackLayout;horizontal=1;startSize=26;horizontalStack=0;resizeParent=1;resizeLast=0;collapsible=1;marginBottom=0;rounded=0;shadow=0;strokeWidth=1;" parent="WIyWlLk6GJQsqaUBKTNV-1" vertex="1" collapsed="1">
          <mxGeometry x="220" y="120" width="160" height="26" as="geometry">
            <mxRectangle x="220" y="120" width="160" height="138" as="alternateBounds" />
          </mxGeometry>
        </mxCell>
        <mxCell id="zkfFHV4jXpPFQw0GAbJ--1" value="Name" style="text;align=left;verticalAlign=top;spacingLeft=4;spacingRight=4;overflow=hidden;rotatable=0;points=[[0,0.5],[1,0.5]];portConstraint=eastwest;" parent="zkfFHV4jXpPFQw0GAbJ--0" vertex="1">
          <mxGeometry y="26" width="160" height="26" as="geometry" />
        </mxCell>
        <mxCell id="zkfFHV4jXpPFQw0GAbJ--2" value="Phone Number" style="text;align=left;verticalAlign=top;spacingLeft=4;spacingRight=4;overflow=hidden;rotatable=0;points=[[0,0.5],[1,0.5]];portConstraint=eastwest;rounded=0;shadow=0;html=0;" parent="zkfFHV4jXpPFQw0GAbJ--0" vertex="1">
          <mxGeometry y="52" width="160" height="26" as="geometry" />
        </mxCell>
        <mxCell id="zkfFHV4jXpPFQw0GAbJ--3" value="Email Address" style="text;align=left;verticalAlign=top;spacingLeft=4;spacingRight=4;overflow=hidden;rotatable=0;points=[[0,0.5],[1,0.5]];portConstraint=eastwest;rounded=0;shadow=0;html=0;" parent="zkfFHV4jXpPFQw0GAbJ--0" vertex="1">
          <mxGeometry y="78" width="160" height="26" as="geometry" />
        </mxCell>
        <mxCell id="zkfFHV4jXpPFQw0GAbJ--4" value="" style="line;html=1;strokeWidth=1;align=left;verticalAlign=middle;spacingTop=-1;spacingLeft=3;spacingRight=3;rotatable=0;labelPosition=right;points=[];portConstraint=eastwest;" parent="zkfFHV4jXpPFQw0GAbJ--0" vertex="1">
          <mxGeometry y="104" width="160" height="8" as="geometry" />
        </mxCell>
        <mxCell id="zkfFHV4jXpPFQw0GAbJ--5" value="Purchase Parking Pass" style="text;align=left;verticalAlign=top;spacingLeft=4;spacingRight=4;overflow=hidden;rotatable=0;points=[[0,0.5],[1,0.5]];portConstraint=eastwest;" parent="zkfFHV4jXpPFQw0GAbJ--0" vertex="1">
          <mxGeometry y="112" width="160" height="26" as="geometry" />
        </mxCell>
        <mxCell id="zkfFHV4jXpPFQw0GAbJ--6" value="Student" style="swimlane;fontStyle=0;align=center;verticalAlign=top;childLayout=stackLayout;horizontal=1;startSize=26;horizontalStack=0;resizeParent=1;resizeLast=0;collapsible=1;marginBottom=0;rounded=0;shadow=0;strokeWidth=1;" parent="WIyWlLk6GJQsqaUBKTNV-1" vertex="1">
          <mxGeometry x="120" y="360" width="160" height="138" as="geometry">
            <mxRectangle x="130" y="380" width="160" height="26" as="alternateBounds" />
          </mxGeometry>
        </mxCell>
        <mxCell id="zkfFHV4jXpPFQw0GAbJ--7" value="Student Number" style="text;align=left;verticalAlign=top;spacingLeft=4;spacingRight=4;overflow=hidden;rotatable=0;points=[[0,0.5],[1,0.5]];portConstraint=eastwest;" parent="zkfFHV4jXpPFQw0GAbJ--6" vertex="1">
          <mxGeometry y="26" width="160" height="26" as="geometry" />
        </mxCell>
        <mxCell id="zkfFHV4jXpPFQw0GAbJ--8" value="Average Mark" style="text;align=left;verticalAlign=top;spacingLeft=4;spacingRight=4;overflow=hidden;rotatable=0;points=[[0,0.5],[1,0.5]];portConstraint=eastwest;rounded=0;shadow=0;html=0;" parent="zkfFHV4jXpPFQw0GAbJ--6" vertex="1">
          <mxGeometry y="52" width="160" height="26" as="geometry" />
        </mxCell>
        <mxCell id="zkfFHV4jXpPFQw0GAbJ--9" value="" style="line;html=1;strokeWidth=1;align=left;verticalAlign=middle;spacingTop=-1;spacingLeft=3;spacingRight=3;rotatable=0;labelPosition=right;points=[];portConstraint=eastwest;" parent="zkfFHV4jXpPFQw0GAbJ--6" vertex="1">
          <mxGeometry y="78" width="160" height="8" as="geometry" />
        </mxCell>
        <mxCell id="zkfFHV4jXpPFQw0GAbJ--10" value="Is Eligible To Enroll" style="text;align=left;verticalAlign=top;spacingLeft=4;spacingRight=4;overflow=hidden;rotatable=0;points=[[0,0.5],[1,0.5]];portConstraint=eastwest;fontStyle=4;" parent="zkfFHV4jXpPFQw0GAbJ--6" vertex="1">
          <mxGeometry y="86" width="160" height="26" as="geometry" />
        </mxCell>
        <mxCell id="zkfFHV4jXpPFQw0GAbJ--11" value="Get Seminars Taken" style="text;align=left;verticalAlign=top;spacingLeft=4;spacingRight=4;overflow=hidden;rotatable=0;points=[[0,0.5],[1,0.5]];portConstraint=eastwest;" parent="zkfFHV4jXpPFQw0GAbJ--6" vertex="1">
          <mxGeometry y="112" width="160" height="26" as="geometry" />
        </mxCell>
        <mxCell id="zkfFHV4jXpPFQw0GAbJ--12" value="" style="endArrow=block;endSize=10;endFill=0;shadow=0;strokeWidth=1;rounded=0;curved=0;edgeStyle=elbowEdgeStyle;elbow=vertical;" parent="WIyWlLk6GJQsqaUBKTNV-1" source="zkfFHV4jXpPFQw0GAbJ--6" target="zkfFHV4jXpPFQw0GAbJ--0" edge="1">
          <mxGeometry width="160" relative="1" as="geometry">
            <mxPoint x="200" y="203" as="sourcePoint" />
            <mxPoint x="200" y="203" as="targetPoint" />
          </mxGeometry>
        </mxCell>
        <mxCell id="zkfFHV4jXpPFQw0GAbJ--13" value="Professor" style="swimlane;fontStyle=0;align=center;verticalAlign=top;childLayout=stackLayout;horizontal=1;startSize=26;horizontalStack=0;resizeParent=1;resizeLast=0;collapsible=1;marginBottom=0;rounded=0;shadow=0;strokeWidth=1;" parent="WIyWlLk6GJQsqaUBKTNV-1" vertex="1">
          <mxGeometry x="330" y="360" width="160" height="70" as="geometry">
            <mxRectangle x="340" y="380" width="170" height="26" as="alternateBounds" />
          </mxGeometry>
        </mxCell>
        <mxCell id="zkfFHV4jXpPFQw0GAbJ--14" value="Salary" style="text;align=left;verticalAlign=top;spacingLeft=4;spacingRight=4;overflow=hidden;rotatable=0;points=[[0,0.5],[1,0.5]];portConstraint=eastwest;" parent="zkfFHV4jXpPFQw0GAbJ--13" vertex="1">
          <mxGeometry y="26" width="160" height="26" as="geometry" />
        </mxCell>
        <mxCell id="zkfFHV4jXpPFQw0GAbJ--15" value="" style="line;html=1;strokeWidth=1;align=left;verticalAlign=middle;spacingTop=-1;spacingLeft=3;spacingRight=3;rotatable=0;labelPosition=right;points=[];portConstraint=eastwest;" parent="zkfFHV4jXpPFQw0GAbJ--13" vertex="1">
          <mxGeometry y="52" width="160" height="8" as="geometry" />
        </mxCell>
        <mxCell id="zkfFHV4jXpPFQw0GAbJ--16" value="" style="endArrow=block;endSize=10;endFill=0;shadow=0;strokeWidth=1;rounded=0;curved=0;edgeStyle=elbowEdgeStyle;elbow=vertical;" parent="WIyWlLk6GJQsqaUBKTNV-1" source="zkfFHV4jXpPFQw0GAbJ--13" target="zkfFHV4jXpPFQw0GAbJ--0" edge="1">
          <mxGeometry width="160" relative="1" as="geometry">
            <mxPoint x="210" y="373" as="sourcePoint" />
            <mxPoint x="310" y="271" as="targetPoint" />
          </mxGeometry>
        </mxCell>
        <mxCell id="zkfFHV4jXpPFQw0GAbJ--17" value="Address" style="swimlane;fontStyle=0;align=center;verticalAlign=top;childLayout=stackLayout;horizontal=1;startSize=26;horizontalStack=0;resizeParent=1;resizeLast=0;collapsible=1;marginBottom=0;rounded=0;shadow=0;strokeWidth=1;" parent="WIyWlLk6GJQsqaUBKTNV-1" vertex="1" collapsed="1">
          <mxGeometry x="419" y="120" width="160" height="26" as="geometry">
            <mxRectangle x="508" y="120" width="160" height="216" as="alternateBounds" />
          </mxGeometry>
        </mxCell>
        <mxCell id="zkfFHV4jXpPFQw0GAbJ--18" value="Street" style="text;align=left;verticalAlign=top;spacingLeft=4;spacingRight=4;overflow=hidden;rotatable=0;points=[[0,0.5],[1,0.5]];portConstraint=eastwest;" parent="zkfFHV4jXpPFQw0GAbJ--17" vertex="1">
          <mxGeometry y="26" width="160" height="26" as="geometry" />
        </mxCell>
        <mxCell id="zkfFHV4jXpPFQw0GAbJ--19" value="City" style="text;align=left;verticalAlign=top;spacingLeft=4;spacingRight=4;overflow=hidden;rotatable=0;points=[[0,0.5],[1,0.5]];portConstraint=eastwest;rounded=0;shadow=0;html=0;" parent="zkfFHV4jXpPFQw0GAbJ--17" vertex="1">
          <mxGeometry y="52" width="160" height="26" as="geometry" />
        </mxCell>
        <mxCell id="zkfFHV4jXpPFQw0GAbJ--20" value="State" style="text;align=left;verticalAlign=top;spacingLeft=4;spacingRight=4;overflow=hidden;rotatable=0;points=[[0,0.5],[1,0.5]];portConstraint=eastwest;rounded=0;shadow=0;html=0;" parent="zkfFHV4jXpPFQw0GAbJ--17" vertex="1">
          <mxGeometry y="78" width="160" height="26" as="geometry" />
        </mxCell>
        <mxCell id="zkfFHV4jXpPFQw0GAbJ--21" value="Postal Code" style="text;align=left;verticalAlign=top;spacingLeft=4;spacingRight=4;overflow=hidden;rotatable=0;points=[[0,0.5],[1,0.5]];portConstraint=eastwest;rounded=0;shadow=0;html=0;" parent="zkfFHV4jXpPFQw0GAbJ--17" vertex="1">
          <mxGeometry y="104" width="160" height="26" as="geometry" />
        </mxCell>
        <mxCell id="zkfFHV4jXpPFQw0GAbJ--22" value="Country" style="text;align=left;verticalAlign=top;spacingLeft=4;spacingRight=4;overflow=hidden;rotatable=0;points=[[0,0.5],[1,0.5]];portConstraint=eastwest;rounded=0;shadow=0;html=0;" parent="zkfFHV4jXpPFQw0GAbJ--17" vertex="1">
          <mxGeometry y="130" width="160" height="26" as="geometry" />
        </mxCell>
        <mxCell id="zkfFHV4jXpPFQw0GAbJ--23" value="" style="line;html=1;strokeWidth=1;align=left;verticalAlign=middle;spacingTop=-1;spacingLeft=3;spacingRight=3;rotatable=0;labelPosition=right;points=[];portConstraint=eastwest;" parent="zkfFHV4jXpPFQw0GAbJ--17" vertex="1">
          <mxGeometry y="156" width="160" height="8" as="geometry" />
        </mxCell>
        <mxCell id="zkfFHV4jXpPFQw0GAbJ--24" value="Validate" style="text;align=left;verticalAlign=top;spacingLeft=4;spacingRight=4;overflow=hidden;rotatable=0;points=[[0,0.5],[1,0.5]];portConstraint=eastwest;" parent="zkfFHV4jXpPFQw0GAbJ--17" vertex="1">
          <mxGeometry y="164" width="160" height="26" as="geometry" />
        </mxCell>
        <mxCell id="zkfFHV4jXpPFQw0GAbJ--25" value="Output As Label" style="text;align=left;verticalAlign=top;spacingLeft=4;spacingRight=4;overflow=hidden;rotatable=0;points=[[0,0.5],[1,0.5]];portConstraint=eastwest;" parent="zkfFHV4jXpPFQw0GAbJ--17" vertex="1">
          <mxGeometry y="190" width="160" height="26" as="geometry" />
        </mxCell>
        <mxCell id="V_Ay7xQyR_psVUGs3vCz-0" value="연혁" style="swimlane;fontStyle=2;align=center;verticalAlign=top;childLayout=stackLayout;horizontal=1;startSize=26;horizontalStack=0;resizeParent=1;resizeLast=0;collapsible=1;marginBottom=0;rounded=0;shadow=0;strokeWidth=1;" vertex="1" parent="WIyWlLk6GJQsqaUBKTNV-1">
          <mxGeometry x="20" y="121" width="160" height="138" as="geometry">
            <mxRectangle x="20" y="121" width="160" height="26" as="alternateBounds" />
          </mxGeometry>
        </mxCell>
        <mxCell id="V_Ay7xQyR_psVUGs3vCz-1" value="Name" style="text;align=left;verticalAlign=top;spacingLeft=4;spacingRight=4;overflow=hidden;rotatable=0;points=[[0,0.5],[1,0.5]];portConstraint=eastwest;" vertex="1" parent="V_Ay7xQyR_psVUGs3vCz-0">
          <mxGeometry y="26" width="160" height="26" as="geometry" />
        </mxCell>
        <mxCell id="V_Ay7xQyR_psVUGs3vCz-2" value="Phone Number" style="text;align=left;verticalAlign=top;spacingLeft=4;spacingRight=4;overflow=hidden;rotatable=0;points=[[0,0.5],[1,0.5]];portConstraint=eastwest;rounded=0;shadow=0;html=0;" vertex="1" parent="V_Ay7xQyR_psVUGs3vCz-0">
          <mxGeometry y="52" width="160" height="26" as="geometry" />
        </mxCell>
        <mxCell id="V_Ay7xQyR_psVUGs3vCz-3" value="Email Address" style="text;align=left;verticalAlign=top;spacingLeft=4;spacingRight=4;overflow=hidden;rotatable=0;points=[[0,0.5],[1,0.5]];portConstraint=eastwest;rounded=0;shadow=0;html=0;" vertex="1" parent="V_Ay7xQyR_psVUGs3vCz-0">
          <mxGeometry y="78" width="160" height="26" as="geometry" />
        </mxCell>
        <mxCell id="V_Ay7xQyR_psVUGs3vCz-4" value="" style="line;html=1;strokeWidth=1;align=left;verticalAlign=middle;spacingTop=-1;spacingLeft=3;spacingRight=3;rotatable=0;labelPosition=right;points=[];portConstraint=eastwest;" vertex="1" parent="V_Ay7xQyR_psVUGs3vCz-0">
          <mxGeometry y="104" width="160" height="8" as="geometry" />
        </mxCell>
        <mxCell id="V_Ay7xQyR_psVUGs3vCz-5" value="Purchase Parking Pass" style="text;align=left;verticalAlign=top;spacingLeft=4;spacingRight=4;overflow=hidden;rotatable=0;points=[[0,0.5],[1,0.5]];portConstraint=eastwest;" vertex="1" parent="V_Ay7xQyR_psVUGs3vCz-0">
          <mxGeometry y="112" width="160" height="26" as="geometry" />
        </mxCell>
        <mxCell id="V_Ay7xQyR_psVUGs3vCz-6" value="Address" style="swimlane;fontStyle=0;align=center;verticalAlign=top;childLayout=stackLayout;horizontal=1;startSize=26;horizontalStack=0;resizeParent=1;resizeLast=0;collapsible=1;marginBottom=0;rounded=0;shadow=0;strokeWidth=1;" vertex="1" collapsed="1" parent="WIyWlLk6GJQsqaUBKTNV-1">
          <mxGeometry x="620" y="121" width="160" height="26" as="geometry">
            <mxRectangle x="508" y="120" width="160" height="216" as="alternateBounds" />
          </mxGeometry>
        </mxCell>
        <mxCell id="V_Ay7xQyR_psVUGs3vCz-7" value="Street" style="text;align=left;verticalAlign=top;spacingLeft=4;spacingRight=4;overflow=hidden;rotatable=0;points=[[0,0.5],[1,0.5]];portConstraint=eastwest;" vertex="1" parent="V_Ay7xQyR_psVUGs3vCz-6">
          <mxGeometry y="26" width="160" height="26" as="geometry" />
        </mxCell>
        <mxCell id="V_Ay7xQyR_psVUGs3vCz-8" value="City" style="text;align=left;verticalAlign=top;spacingLeft=4;spacingRight=4;overflow=hidden;rotatable=0;points=[[0,0.5],[1,0.5]];portConstraint=eastwest;rounded=0;shadow=0;html=0;" vertex="1" parent="V_Ay7xQyR_psVUGs3vCz-6">
          <mxGeometry y="52" width="160" height="26" as="geometry" />
        </mxCell>
        <mxCell id="V_Ay7xQyR_psVUGs3vCz-9" value="State" style="text;align=left;verticalAlign=top;spacingLeft=4;spacingRight=4;overflow=hidden;rotatable=0;points=[[0,0.5],[1,0.5]];portConstraint=eastwest;rounded=0;shadow=0;html=0;" vertex="1" parent="V_Ay7xQyR_psVUGs3vCz-6">
          <mxGeometry y="78" width="160" height="26" as="geometry" />
        </mxCell>
        <mxCell id="V_Ay7xQyR_psVUGs3vCz-10" value="Postal Code" style="text;align=left;verticalAlign=top;spacingLeft=4;spacingRight=4;overflow=hidden;rotatable=0;points=[[0,0.5],[1,0.5]];portConstraint=eastwest;rounded=0;shadow=0;html=0;" vertex="1" parent="V_Ay7xQyR_psVUGs3vCz-6">
          <mxGeometry y="104" width="160" height="26" as="geometry" />
        </mxCell>
        <mxCell id="V_Ay7xQyR_psVUGs3vCz-11" value="Country" style="text;align=left;verticalAlign=top;spacingLeft=4;spacingRight=4;overflow=hidden;rotatable=0;points=[[0,0.5],[1,0.5]];portConstraint=eastwest;rounded=0;shadow=0;html=0;" vertex="1" parent="V_Ay7xQyR_psVUGs3vCz-6">
          <mxGeometry y="130" width="160" height="26" as="geometry" />
        </mxCell>
        <mxCell id="V_Ay7xQyR_psVUGs3vCz-12" value="" style="line;html=1;strokeWidth=1;align=left;verticalAlign=middle;spacingTop=-1;spacingLeft=3;spacingRight=3;rotatable=0;labelPosition=right;points=[];portConstraint=eastwest;" vertex="1" parent="V_Ay7xQyR_psVUGs3vCz-6">
          <mxGeometry y="156" width="160" height="8" as="geometry" />
        </mxCell>
        <mxCell id="V_Ay7xQyR_psVUGs3vCz-13" value="Validate" style="text;align=left;verticalAlign=top;spacingLeft=4;spacingRight=4;overflow=hidden;rotatable=0;points=[[0,0.5],[1,0.5]];portConstraint=eastwest;" vertex="1" parent="V_Ay7xQyR_psVUGs3vCz-6">
          <mxGeometry y="164" width="160" height="26" as="geometry" />
        </mxCell>
        <mxCell id="V_Ay7xQyR_psVUGs3vCz-14" value="Output As Label" style="text;align=left;verticalAlign=top;spacingLeft=4;spacingRight=4;overflow=hidden;rotatable=0;points=[[0,0.5],[1,0.5]];portConstraint=eastwest;" vertex="1" parent="V_Ay7xQyR_psVUGs3vCz-6">
          <mxGeometry y="190" width="160" height="26" as="geometry" />
        </mxCell>
        <mxCell id="V_Ay7xQyR_psVUGs3vCz-16" value="" style="rounded=0;whiteSpace=wrap;html=1;" vertex="1" parent="WIyWlLk6GJQsqaUBKTNV-1">
          <mxGeometry x="150" y="1310" width="560" height="670" as="geometry" />
        </mxCell>
        <mxCell id="V_Ay7xQyR_psVUGs3vCz-17" value="" style="ellipse;whiteSpace=wrap;html=1;aspect=fixed;fillColor=#dae8fc;strokeColor=#6c8ebf;" vertex="1" parent="WIyWlLk6GJQsqaUBKTNV-1">
          <mxGeometry x="93" y="1484" width="20" height="20" as="geometry" />
        </mxCell>
        <mxCell id="V_Ay7xQyR_psVUGs3vCz-19" value="" style="endArrow=none;html=1;rounded=0;" edge="1" parent="WIyWlLk6GJQsqaUBKTNV-1">
          <mxGeometry width="50" height="50" relative="1" as="geometry">
            <mxPoint x="103" y="1504" as="sourcePoint" />
            <mxPoint x="103" y="1530" as="targetPoint" />
          </mxGeometry>
        </mxCell>
        <mxCell id="V_Ay7xQyR_psVUGs3vCz-20" value="" style="endArrow=none;html=1;rounded=0;" edge="1" parent="WIyWlLk6GJQsqaUBKTNV-1">
          <mxGeometry width="50" height="50" relative="1" as="geometry">
            <mxPoint x="120" y="1514" as="sourcePoint" />
            <mxPoint x="103" y="1514" as="targetPoint" />
          </mxGeometry>
        </mxCell>
        <mxCell id="V_Ay7xQyR_psVUGs3vCz-21" value="" style="endArrow=none;html=1;rounded=0;" edge="1" parent="WIyWlLk6GJQsqaUBKTNV-1">
          <mxGeometry width="50" height="50" relative="1" as="geometry">
            <mxPoint x="110" y="1514" as="sourcePoint" />
            <mxPoint x="90" y="1514" as="targetPoint" />
          </mxGeometry>
        </mxCell>
        <mxCell id="V_Ay7xQyR_psVUGs3vCz-22" value="" style="endArrow=none;html=1;rounded=0;" edge="1" parent="WIyWlLk6GJQsqaUBKTNV-1">
          <mxGeometry width="50" height="50" relative="1" as="geometry">
            <mxPoint x="90" y="1560" as="sourcePoint" />
            <mxPoint x="103" y="1530" as="targetPoint" />
          </mxGeometry>
        </mxCell>
        <mxCell id="V_Ay7xQyR_psVUGs3vCz-23" value="" style="endArrow=none;html=1;rounded=0;" edge="1" parent="WIyWlLk6GJQsqaUBKTNV-1">
          <mxGeometry width="50" height="50" relative="1" as="geometry">
            <mxPoint x="103" y="1530" as="sourcePoint" />
            <mxPoint x="120" y="1560" as="targetPoint" />
          </mxGeometry>
        </mxCell>
        <mxCell id="V_Ay7xQyR_psVUGs3vCz-24" value="" style="ellipse;whiteSpace=wrap;html=1;aspect=fixed;fillColor=#0066CC;strokeColor=#6c8ebf;" vertex="1" parent="WIyWlLk6GJQsqaUBKTNV-1">
          <mxGeometry x="92" y="1777" width="20" height="20" as="geometry" />
        </mxCell>
        <mxCell id="V_Ay7xQyR_psVUGs3vCz-30" value="" style="ellipse;whiteSpace=wrap;html=1;aspect=fixed;fillColor=#102037;strokeColor=#6c8ebf;" vertex="1" parent="WIyWlLk6GJQsqaUBKTNV-1">
          <mxGeometry x="740" y="1651" width="20" height="20" as="geometry" />
        </mxCell>
        <mxCell id="V_Ay7xQyR_psVUGs3vCz-36" value="&lt;font color=&quot;#ff2a12&quot;&gt;&lt;b&gt;지역소개&lt;/b&gt;&lt;/font&gt;" style="ellipse;whiteSpace=wrap;html=1;" vertex="1" parent="WIyWlLk6GJQsqaUBKTNV-1">
          <mxGeometry x="381" y="1420" width="100" height="44" as="geometry" />
        </mxCell>
        <mxCell id="V_Ay7xQyR_psVUGs3vCz-37" value="유래" style="ellipse;whiteSpace=wrap;html=1;" vertex="1" parent="WIyWlLk6GJQsqaUBKTNV-1">
          <mxGeometry x="327" y="1340" width="60" height="40" as="geometry" />
        </mxCell>
        <mxCell id="V_Ay7xQyR_psVUGs3vCz-38" value="시설안내" style="ellipse;whiteSpace=wrap;html=1;" vertex="1" parent="WIyWlLk6GJQsqaUBKTNV-1">
          <mxGeometry x="400" y="1339" width="60" height="40" as="geometry" />
        </mxCell>
        <mxCell id="V_Ay7xQyR_psVUGs3vCz-39" value="오시는 길" style="ellipse;whiteSpace=wrap;html=1;" vertex="1" parent="WIyWlLk6GJQsqaUBKTNV-1">
          <mxGeometry x="475" y="1340" width="60" height="40" as="geometry" />
        </mxCell>
        <mxCell id="V_Ay7xQyR_psVUGs3vCz-40" value="&lt;font style=&quot;font-size: 7px;&quot;&gt;include&lt;/font&gt;" style="text;html=1;align=center;verticalAlign=middle;whiteSpace=wrap;rounded=0;rotation=30;" vertex="1" parent="WIyWlLk6GJQsqaUBKTNV-1">
          <mxGeometry x="344" y="1390" width="70" height="20" as="geometry" />
        </mxCell>
        <mxCell id="V_Ay7xQyR_psVUGs3vCz-41" value="&lt;font style=&quot;font-size: 7px;&quot;&gt;include&lt;/font&gt;" style="text;html=1;align=center;verticalAlign=middle;whiteSpace=wrap;rounded=0;" vertex="1" parent="WIyWlLk6GJQsqaUBKTNV-1">
          <mxGeometry x="414" y="1381" width="70" height="20" as="geometry" />
        </mxCell>
        <mxCell id="V_Ay7xQyR_psVUGs3vCz-42" value="&lt;font style=&quot;font-size: 7px;&quot;&gt;include&lt;/font&gt;" style="text;html=1;align=center;verticalAlign=middle;whiteSpace=wrap;rounded=0;rotation=-15;" vertex="1" parent="WIyWlLk6GJQsqaUBKTNV-1">
          <mxGeometry x="446" y="1390" width="70" height="20" as="geometry" />
        </mxCell>
        <mxCell id="V_Ay7xQyR_psVUGs3vCz-43" value="" style="endArrow=classic;html=1;rounded=0;entryX=0.5;entryY=0;entryDx=0;entryDy=0;" edge="1" parent="WIyWlLk6GJQsqaUBKTNV-1" target="V_Ay7xQyR_psVUGs3vCz-36">
          <mxGeometry width="50" height="50" relative="1" as="geometry">
            <mxPoint x="356" y="1380" as="sourcePoint" />
            <mxPoint x="406" y="1330" as="targetPoint" />
          </mxGeometry>
        </mxCell>
        <mxCell id="V_Ay7xQyR_psVUGs3vCz-44" value="" style="endArrow=classic;html=1;rounded=0;entryX=0.5;entryY=0;entryDx=0;entryDy=0;" edge="1" parent="WIyWlLk6GJQsqaUBKTNV-1" target="V_Ay7xQyR_psVUGs3vCz-36">
          <mxGeometry width="50" height="50" relative="1" as="geometry">
            <mxPoint x="431" y="1380" as="sourcePoint" />
            <mxPoint x="481" y="1330" as="targetPoint" />
          </mxGeometry>
        </mxCell>
        <mxCell id="V_Ay7xQyR_psVUGs3vCz-45" value="" style="endArrow=classic;html=1;rounded=0;entryX=0.5;entryY=0;entryDx=0;entryDy=0;" edge="1" parent="WIyWlLk6GJQsqaUBKTNV-1" target="V_Ay7xQyR_psVUGs3vCz-36">
          <mxGeometry width="50" height="50" relative="1" as="geometry">
            <mxPoint x="501" y="1381" as="sourcePoint" />
            <mxPoint x="440" y="1420" as="targetPoint" />
          </mxGeometry>
        </mxCell>
        <mxCell id="V_Ay7xQyR_psVUGs3vCz-47" value="내용수정" style="ellipse;whiteSpace=wrap;html=1;fillColor=#E0E0E0;fontColor=#333333;strokeColor=#666666;" vertex="1" parent="WIyWlLk6GJQsqaUBKTNV-1">
          <mxGeometry x="540" y="1459" width="90" height="41" as="geometry" />
        </mxCell>
        <mxCell id="V_Ay7xQyR_psVUGs3vCz-49" value="" style="endArrow=classic;html=1;rounded=0;exitX=1;exitY=0.5;exitDx=0;exitDy=0;" edge="1" parent="WIyWlLk6GJQsqaUBKTNV-1" source="V_Ay7xQyR_psVUGs3vCz-17" target="V_Ay7xQyR_psVUGs3vCz-36">
          <mxGeometry width="50" height="50" relative="1" as="geometry">
            <mxPoint x="420" y="1590" as="sourcePoint" />
            <mxPoint x="470" y="1540" as="targetPoint" />
          </mxGeometry>
        </mxCell>
        <mxCell id="V_Ay7xQyR_psVUGs3vCz-50" value="" style="endArrow=classic;html=1;rounded=0;exitX=0;exitY=0;exitDx=0;exitDy=0;entryX=1;entryY=0.5;entryDx=0;entryDy=0;" edge="1" parent="WIyWlLk6GJQsqaUBKTNV-1" source="V_Ay7xQyR_psVUGs3vCz-30" target="V_Ay7xQyR_psVUGs3vCz-47">
          <mxGeometry width="50" height="50" relative="1" as="geometry">
            <mxPoint x="420" y="1590" as="sourcePoint" />
            <mxPoint x="470" y="1540" as="targetPoint" />
          </mxGeometry>
        </mxCell>
        <mxCell id="V_Ay7xQyR_psVUGs3vCz-52" value="&lt;font style=&quot;font-size: 8px;&quot;&gt;extend&lt;/font&gt;" style="text;html=1;align=center;verticalAlign=middle;whiteSpace=wrap;rounded=0;rotation=45;" vertex="1" parent="WIyWlLk6GJQsqaUBKTNV-1">
          <mxGeometry x="475" y="1454" width="50" height="30" as="geometry" />
        </mxCell>
        <mxCell id="V_Ay7xQyR_psVUGs3vCz-53" value="" style="endArrow=classic;html=1;rounded=0;entryX=0.035;entryY=0.62;entryDx=0;entryDy=0;entryPerimeter=0;exitX=1;exitY=0.5;exitDx=0;exitDy=0;" edge="1" parent="WIyWlLk6GJQsqaUBKTNV-1" source="V_Ay7xQyR_psVUGs3vCz-36" target="V_Ay7xQyR_psVUGs3vCz-47">
          <mxGeometry width="50" height="50" relative="1" as="geometry">
            <mxPoint x="318" y="1515" as="sourcePoint" />
            <mxPoint x="368" y="1465" as="targetPoint" />
          </mxGeometry>
        </mxCell>
        <mxCell id="V_Ay7xQyR_psVUGs3vCz-54" value="&lt;font color=&quot;#ff2a12&quot;&gt;&lt;b&gt;이용 안내&lt;/b&gt;&lt;/font&gt;" style="ellipse;whiteSpace=wrap;html=1;" vertex="1" parent="WIyWlLk6GJQsqaUBKTNV-1">
          <mxGeometry x="381" y="1573" width="100" height="44" as="geometry" />
        </mxCell>
        <mxCell id="V_Ay7xQyR_psVUGs3vCz-55" value="교통편" style="ellipse;whiteSpace=wrap;html=1;" vertex="1" parent="WIyWlLk6GJQsqaUBKTNV-1">
          <mxGeometry x="220" y="1507" width="60" height="40" as="geometry" />
        </mxCell>
        <mxCell id="V_Ay7xQyR_psVUGs3vCz-56" value="관광지" style="ellipse;whiteSpace=wrap;html=1;" vertex="1" parent="WIyWlLk6GJQsqaUBKTNV-1">
          <mxGeometry x="310" y="1507" width="60" height="40" as="geometry" />
        </mxCell>
        <mxCell id="V_Ay7xQyR_psVUGs3vCz-57" value="먹거리" style="ellipse;whiteSpace=wrap;html=1;" vertex="1" parent="WIyWlLk6GJQsqaUBKTNV-1">
          <mxGeometry x="401" y="1507" width="60" height="40" as="geometry" />
        </mxCell>
        <mxCell id="V_Ay7xQyR_psVUGs3vCz-58" value="공공기관&lt;span style=&quot;color: rgba(0, 0, 0, 0); font-family: monospace; font-size: 0px; text-align: start; text-wrap: nowrap;&quot;&gt;%3CmxGraphModel%3E%3Croot%3E%3CmxCell%20id%3D%220%22%2F%3E%3CmxCell%20id%3D%221%22%20parent%3D%220%22%2F%3E%3CmxCell%20id%3D%222%22%20value%3D%22%26lt%3Bfont%20style%3D%26quot%3Bfont-size%3A%208px%3B%26quot%3B%26gt%3Bextend%26lt%3B%2Ffont%26gt%3B%22%20style%3D%22text%3Bhtml%3D1%3Balign%3Dcenter%3BverticalAlign%3Dmiddle%3BwhiteSpace%3Dwrap%3Brounded%3D0%3Brotation%3D45%3B%22%20vertex%3D%221%22%20parent%3D%221%22%3E%3CmxGeometry%20x%3D%22475%22%20y%3D%221454%22%20width%3D%2250%22%20height%3D%2230%22%20as%3D%22geometry%22%2F%3E%3C%2FmxCell%3E%3C%2Froot%3E%3C%2FmxGraphModel%3E&lt;/span&gt;" style="ellipse;whiteSpace=wrap;html=1;" vertex="1" parent="WIyWlLk6GJQsqaUBKTNV-1">
          <mxGeometry x="496" y="1507" width="60" height="40" as="geometry" />
        </mxCell>
        <mxCell id="V_Ay7xQyR_psVUGs3vCz-59" value="내용수정" style="ellipse;whiteSpace=wrap;html=1;fillColor=#D9D9D9;fontColor=#333333;strokeColor=#666666;" vertex="1" parent="WIyWlLk6GJQsqaUBKTNV-1">
          <mxGeometry x="572" y="1596" width="89" height="40" as="geometry" />
        </mxCell>
        <mxCell id="V_Ay7xQyR_psVUGs3vCz-60" value="&lt;font style=&quot;font-size: 8px;&quot;&gt;extend&lt;/font&gt;" style="text;html=1;align=center;verticalAlign=middle;whiteSpace=wrap;rounded=0;rotation=10;" vertex="1" parent="WIyWlLk6GJQsqaUBKTNV-1">
          <mxGeometry x="484" y="1590" width="50" height="30" as="geometry" />
        </mxCell>
        <mxCell id="V_Ay7xQyR_psVUGs3vCz-61" value="" style="endArrow=classic;html=1;rounded=0;exitX=1;exitY=1;exitDx=0;exitDy=0;entryX=0;entryY=0.5;entryDx=0;entryDy=0;" edge="1" parent="WIyWlLk6GJQsqaUBKTNV-1" source="V_Ay7xQyR_psVUGs3vCz-54" target="V_Ay7xQyR_psVUGs3vCz-59">
          <mxGeometry width="50" height="50" relative="1" as="geometry">
            <mxPoint x="520" y="1660" as="sourcePoint" />
            <mxPoint x="570" y="1610" as="targetPoint" />
          </mxGeometry>
        </mxCell>
        <mxCell id="V_Ay7xQyR_psVUGs3vCz-62" value="" style="endArrow=classic;html=1;rounded=0;exitX=0;exitY=0.5;exitDx=0;exitDy=0;entryX=1;entryY=0.55;entryDx=0;entryDy=0;entryPerimeter=0;" edge="1" parent="WIyWlLk6GJQsqaUBKTNV-1" source="V_Ay7xQyR_psVUGs3vCz-30" target="V_Ay7xQyR_psVUGs3vCz-59">
          <mxGeometry width="50" height="50" relative="1" as="geometry">
            <mxPoint x="520" y="1660" as="sourcePoint" />
            <mxPoint x="570" y="1610" as="targetPoint" />
          </mxGeometry>
        </mxCell>
        <mxCell id="V_Ay7xQyR_psVUGs3vCz-64" value="교육시설" style="ellipse;whiteSpace=wrap;html=1;" vertex="1" parent="WIyWlLk6GJQsqaUBKTNV-1">
          <mxGeometry x="590" y="1507" width="60" height="40" as="geometry" />
        </mxCell>
        <mxCell id="V_Ay7xQyR_psVUGs3vCz-65" value="&lt;font color=&quot;#ff2a12&quot;&gt;&lt;b&gt;공지사항&lt;/b&gt;&lt;/font&gt;" style="ellipse;whiteSpace=wrap;html=1;" vertex="1" parent="WIyWlLk6GJQsqaUBKTNV-1">
          <mxGeometry x="375" y="1733" width="100" height="44" as="geometry" />
        </mxCell>
        <mxCell id="V_Ay7xQyR_psVUGs3vCz-66" value="&lt;font style=&quot;font-size: 7px;&quot;&gt;include&lt;/font&gt;" style="text;html=1;align=center;verticalAlign=middle;whiteSpace=wrap;rounded=0;rotation=15;" vertex="1" parent="WIyWlLk6GJQsqaUBKTNV-1">
          <mxGeometry x="344" y="1533" width="70" height="20" as="geometry" />
        </mxCell>
        <mxCell id="V_Ay7xQyR_psVUGs3vCz-67" value="" style="endArrow=classic;html=1;rounded=0;entryX=0.5;entryY=0;entryDx=0;entryDy=0;" edge="1" parent="WIyWlLk6GJQsqaUBKTNV-1" target="V_Ay7xQyR_psVUGs3vCz-54">
          <mxGeometry width="50" height="50" relative="1" as="geometry">
            <mxPoint x="339" y="1547" as="sourcePoint" />
            <mxPoint x="390" y="1570" as="targetPoint" />
          </mxGeometry>
        </mxCell>
        <mxCell id="V_Ay7xQyR_psVUGs3vCz-68" value="&lt;font style=&quot;font-size: 7px;&quot;&gt;include&lt;/font&gt;" style="text;html=1;align=center;verticalAlign=middle;whiteSpace=wrap;rounded=0;rotation=15;" vertex="1" parent="WIyWlLk6GJQsqaUBKTNV-1">
          <mxGeometry x="268" y="1553" width="70" height="20" as="geometry" />
        </mxCell>
        <mxCell id="V_Ay7xQyR_psVUGs3vCz-69" value="" style="endArrow=classic;html=1;rounded=0;" edge="1" parent="WIyWlLk6GJQsqaUBKTNV-1" target="V_Ay7xQyR_psVUGs3vCz-54">
          <mxGeometry width="50" height="50" relative="1" as="geometry">
            <mxPoint x="251" y="1547" as="sourcePoint" />
            <mxPoint x="326" y="1587" as="targetPoint" />
          </mxGeometry>
        </mxCell>
        <mxCell id="V_Ay7xQyR_psVUGs3vCz-73" value="상세보기&lt;span style=&quot;color: rgba(0, 0, 0, 0); font-family: monospace; font-size: 0px; text-align: start; text-wrap: nowrap;&quot;&gt;%3CmxGraphModel%3E%3Croot%3E%3CmxCell%20id%3D%220%22%2F%3E%3CmxCell%20id%3D%221%22%20parent%3D%220%22%2F%3E%3CmxCell%20id%3D%222%22%20value%3D%22%EB%A8%B9%EA%B1%B0%EB%A6%AC%22%20style%3D%22ellipse%3BwhiteSpace%3Dwrap%3Bhtml%3D1%3B%22%20vertex%3D%221%22%20parent%3D%221%22%3E%3CmxGeometry%20x%3D%22401%22%20y%3D%221507%22%20width%3D%2260%22%20height%3D%2240%22%20as%3D%22geometry%22%2F%3E%3C%2FmxCell%3E%3C%2Froot%3E%3C%2FmxGraphModel%3E&lt;/span&gt;&lt;span style=&quot;color: rgba(0, 0, 0, 0); font-family: monospace; font-size: 0px; text-align: start; text-wrap: nowrap;&quot;&gt;%3CmxGraphModel%3E%3Croot%3E%3CmxCell%20id%3D%220%22%2F%3E%3CmxCell%20id%3D%221%22%20parent%3D%220%22%2F%3E%3CmxCell%20id%3D%222%22%20value%3D%22%EB%A8%B9%EA%B1%B0%EB%A6%AC%22%20style%3D%22ellipse%3BwhiteSpace%3Dwrap%3Bhtml%3D1%3B%22%20vertex%3D%221%22%20parent%3D%221%22%3E%3CmxGeometry%20x%3D%22401%22%20y%3D%221507%22%20width%3D%2260%22%20height%3D%2240%22%20as%3D%22geometry%22%2F%3E%3C%2FmxCell%3E%3C%2Froot%3E%3C%2FmxGraphModel%3E&lt;/span&gt;" style="ellipse;whiteSpace=wrap;html=1;" vertex="1" parent="WIyWlLk6GJQsqaUBKTNV-1">
          <mxGeometry x="395" y="1797" width="60" height="40" as="geometry" />
        </mxCell>
        <mxCell id="V_Ay7xQyR_psVUGs3vCz-74" value="목록보기" style="ellipse;whiteSpace=wrap;html=1;" vertex="1" parent="WIyWlLk6GJQsqaUBKTNV-1">
          <mxGeometry x="290" y="1677" width="60" height="40" as="geometry" />
        </mxCell>
        <mxCell id="V_Ay7xQyR_psVUGs3vCz-75" value="회원가입" style="ellipse;whiteSpace=wrap;html=1;" vertex="1" parent="WIyWlLk6GJQsqaUBKTNV-1">
          <mxGeometry x="218" y="1702" width="60" height="40" as="geometry" />
        </mxCell>
        <mxCell id="V_Ay7xQyR_psVUGs3vCz-76" value="로그인" style="ellipse;whiteSpace=wrap;html=1;" vertex="1" parent="WIyWlLk6GJQsqaUBKTNV-1">
          <mxGeometry x="218" y="1777" width="60" height="40" as="geometry" />
        </mxCell>
        <mxCell id="V_Ay7xQyR_psVUGs3vCz-77" value="" style="endArrow=classic;html=1;rounded=0;entryX=0;entryY=0;entryDx=0;entryDy=0;exitX=1;exitY=1;exitDx=0;exitDy=0;" edge="1" parent="WIyWlLk6GJQsqaUBKTNV-1" source="V_Ay7xQyR_psVUGs3vCz-17" target="V_Ay7xQyR_psVUGs3vCz-74">
          <mxGeometry width="50" height="50" relative="1" as="geometry">
            <mxPoint x="120" y="1573" as="sourcePoint" />
            <mxPoint x="170" y="1523" as="targetPoint" />
          </mxGeometry>
        </mxCell>
        <mxCell id="V_Ay7xQyR_psVUGs3vCz-78" value="&lt;font style=&quot;font-size: 7px;&quot;&gt;include&lt;/font&gt;" style="text;html=1;align=center;verticalAlign=middle;whiteSpace=wrap;rounded=0;rotation=-30;" vertex="1" parent="WIyWlLk6GJQsqaUBKTNV-1">
          <mxGeometry x="560" y="1553" width="70" height="20" as="geometry" />
        </mxCell>
        <mxCell id="V_Ay7xQyR_psVUGs3vCz-80" value="&lt;font style=&quot;font-size: 7px;&quot;&gt;include&lt;/font&gt;" style="text;html=1;align=center;verticalAlign=middle;whiteSpace=wrap;rounded=0;rotation=-30;" vertex="1" parent="WIyWlLk6GJQsqaUBKTNV-1">
          <mxGeometry x="478.93" y="1544" width="54" height="20" as="geometry" />
        </mxCell>
        <mxCell id="V_Ay7xQyR_psVUGs3vCz-81" value="" style="endArrow=classic;html=1;rounded=0;entryX=0.5;entryY=0;entryDx=0;entryDy=0;exitX=0;exitY=1;exitDx=0;exitDy=0;" edge="1" parent="WIyWlLk6GJQsqaUBKTNV-1" source="V_Ay7xQyR_psVUGs3vCz-58" target="V_Ay7xQyR_psVUGs3vCz-54">
          <mxGeometry width="50" height="50" relative="1" as="geometry">
            <mxPoint x="516" y="1548" as="sourcePoint" />
            <mxPoint x="566" y="1498" as="targetPoint" />
          </mxGeometry>
        </mxCell>
        <mxCell id="V_Ay7xQyR_psVUGs3vCz-82" value="" style="endArrow=classic;html=1;rounded=0;entryX=1;entryY=0;entryDx=0;entryDy=0;" edge="1" parent="WIyWlLk6GJQsqaUBKTNV-1" target="V_Ay7xQyR_psVUGs3vCz-54">
          <mxGeometry width="50" height="50" relative="1" as="geometry">
            <mxPoint x="610" y="1547" as="sourcePoint" />
            <mxPoint x="660" y="1497" as="targetPoint" />
          </mxGeometry>
        </mxCell>
        <mxCell id="V_Ay7xQyR_psVUGs3vCz-84" value="" style="endArrow=classic;html=1;rounded=0;entryX=0.5;entryY=0;entryDx=0;entryDy=0;" edge="1" parent="WIyWlLk6GJQsqaUBKTNV-1" target="V_Ay7xQyR_psVUGs3vCz-54">
          <mxGeometry width="50" height="50" relative="1" as="geometry">
            <mxPoint x="431" y="1547" as="sourcePoint" />
            <mxPoint x="481" y="1497" as="targetPoint" />
          </mxGeometry>
        </mxCell>
        <mxCell id="V_Ay7xQyR_psVUGs3vCz-85" value="&lt;font style=&quot;font-size: 7px;&quot;&gt;include&lt;/font&gt;" style="text;html=1;align=center;verticalAlign=middle;whiteSpace=wrap;rounded=0;rotation=0;" vertex="1" parent="WIyWlLk6GJQsqaUBKTNV-1">
          <mxGeometry x="420" y="1540" width="70" height="20" as="geometry" />
        </mxCell>
        <mxCell id="V_Ay7xQyR_psVUGs3vCz-86" value="&lt;font color=&quot;#121aff&quot;&gt;글수정&lt;/font&gt;" style="ellipse;whiteSpace=wrap;html=1;" vertex="1" parent="WIyWlLk6GJQsqaUBKTNV-1">
          <mxGeometry x="362" y="1676" width="60" height="40" as="geometry" />
        </mxCell>
        <mxCell id="V_Ay7xQyR_psVUGs3vCz-87" value="&lt;font color=&quot;#121aff&quot;&gt;글등록&lt;/font&gt;" style="ellipse;whiteSpace=wrap;html=1;" vertex="1" parent="WIyWlLk6GJQsqaUBKTNV-1">
          <mxGeometry x="431" y="1675" width="60" height="40" as="geometry" />
        </mxCell>
        <mxCell id="V_Ay7xQyR_psVUGs3vCz-88" value="&lt;font color=&quot;#121aff&quot;&gt;글삭제&lt;/font&gt;" style="ellipse;whiteSpace=wrap;html=1;" vertex="1" parent="WIyWlLk6GJQsqaUBKTNV-1">
          <mxGeometry x="503" y="1674" width="60" height="40" as="geometry" />
        </mxCell>
        <mxCell id="V_Ay7xQyR_psVUGs3vCz-89" value="글관리" style="ellipse;whiteSpace=wrap;html=1;fillColor=#D1D1D1;fontColor=#333333;strokeColor=#666666;" vertex="1" parent="WIyWlLk6GJQsqaUBKTNV-1">
          <mxGeometry x="572" y="1651" width="88" height="40" as="geometry" />
        </mxCell>
        <mxCell id="V_Ay7xQyR_psVUGs3vCz-91" value="" style="endArrow=classic;html=1;rounded=0;entryX=0;entryY=0.5;entryDx=0;entryDy=0;" edge="1" parent="WIyWlLk6GJQsqaUBKTNV-1" target="V_Ay7xQyR_psVUGs3vCz-65">
          <mxGeometry width="50" height="50" relative="1" as="geometry">
            <mxPoint x="320" y="1717" as="sourcePoint" />
            <mxPoint x="370" y="1667" as="targetPoint" />
          </mxGeometry>
        </mxCell>
        <mxCell id="V_Ay7xQyR_psVUGs3vCz-92" value="" style="endArrow=classic;html=1;rounded=0;entryX=0.275;entryY=0.038;entryDx=0;entryDy=0;entryPerimeter=0;" edge="1" parent="WIyWlLk6GJQsqaUBKTNV-1" target="V_Ay7xQyR_psVUGs3vCz-65">
          <mxGeometry width="50" height="50" relative="1" as="geometry">
            <mxPoint x="387" y="1717" as="sourcePoint" />
            <mxPoint x="437" y="1667" as="targetPoint" />
          </mxGeometry>
        </mxCell>
        <mxCell id="V_Ay7xQyR_psVUGs3vCz-93" value="" style="endArrow=classic;html=1;rounded=0;entryX=0.675;entryY=0.038;entryDx=0;entryDy=0;entryPerimeter=0;" edge="1" parent="WIyWlLk6GJQsqaUBKTNV-1" target="V_Ay7xQyR_psVUGs3vCz-65">
          <mxGeometry width="50" height="50" relative="1" as="geometry">
            <mxPoint x="460" y="1714" as="sourcePoint" />
            <mxPoint x="510" y="1664" as="targetPoint" />
          </mxGeometry>
        </mxCell>
        <mxCell id="V_Ay7xQyR_psVUGs3vCz-94" value="" style="endArrow=classic;html=1;rounded=0;entryX=0.983;entryY=0.36;entryDx=0;entryDy=0;entryPerimeter=0;" edge="1" parent="WIyWlLk6GJQsqaUBKTNV-1" target="V_Ay7xQyR_psVUGs3vCz-65">
          <mxGeometry width="50" height="50" relative="1" as="geometry">
            <mxPoint x="532.93" y="1714" as="sourcePoint" />
            <mxPoint x="582.93" y="1664" as="targetPoint" />
          </mxGeometry>
        </mxCell>
        <mxCell id="V_Ay7xQyR_psVUGs3vCz-99" value="" style="endArrow=none;html=1;rounded=0;" edge="1" parent="WIyWlLk6GJQsqaUBKTNV-1">
          <mxGeometry width="50" height="50" relative="1" as="geometry">
            <mxPoint x="101" y="1796" as="sourcePoint" />
            <mxPoint x="101" y="1822" as="targetPoint" />
          </mxGeometry>
        </mxCell>
        <mxCell id="V_Ay7xQyR_psVUGs3vCz-100" value="" style="endArrow=none;html=1;rounded=0;" edge="1" parent="WIyWlLk6GJQsqaUBKTNV-1">
          <mxGeometry width="50" height="50" relative="1" as="geometry">
            <mxPoint x="118" y="1806" as="sourcePoint" />
            <mxPoint x="101" y="1806" as="targetPoint" />
          </mxGeometry>
        </mxCell>
        <mxCell id="V_Ay7xQyR_psVUGs3vCz-101" value="" style="endArrow=none;html=1;rounded=0;" edge="1" parent="WIyWlLk6GJQsqaUBKTNV-1">
          <mxGeometry width="50" height="50" relative="1" as="geometry">
            <mxPoint x="103" y="1806" as="sourcePoint" />
            <mxPoint x="83" y="1806" as="targetPoint" />
          </mxGeometry>
        </mxCell>
        <mxCell id="V_Ay7xQyR_psVUGs3vCz-102" value="" style="endArrow=none;html=1;rounded=0;" edge="1" parent="WIyWlLk6GJQsqaUBKTNV-1">
          <mxGeometry width="50" height="50" relative="1" as="geometry">
            <mxPoint x="88" y="1852" as="sourcePoint" />
            <mxPoint x="101" y="1822" as="targetPoint" />
          </mxGeometry>
        </mxCell>
        <mxCell id="V_Ay7xQyR_psVUGs3vCz-103" value="" style="endArrow=none;html=1;rounded=0;" edge="1" parent="WIyWlLk6GJQsqaUBKTNV-1">
          <mxGeometry width="50" height="50" relative="1" as="geometry">
            <mxPoint x="101" y="1822" as="sourcePoint" />
            <mxPoint x="118" y="1852" as="targetPoint" />
          </mxGeometry>
        </mxCell>
        <mxCell id="V_Ay7xQyR_psVUGs3vCz-104" value="" style="endArrow=none;html=1;rounded=0;" edge="1" parent="WIyWlLk6GJQsqaUBKTNV-1">
          <mxGeometry width="50" height="50" relative="1" as="geometry">
            <mxPoint x="750" y="1671" as="sourcePoint" />
            <mxPoint x="750" y="1697" as="targetPoint" />
          </mxGeometry>
        </mxCell>
        <mxCell id="V_Ay7xQyR_psVUGs3vCz-105" value="" style="endArrow=none;html=1;rounded=0;" edge="1" parent="WIyWlLk6GJQsqaUBKTNV-1">
          <mxGeometry width="50" height="50" relative="1" as="geometry">
            <mxPoint x="767" y="1681" as="sourcePoint" />
            <mxPoint x="750" y="1681" as="targetPoint" />
          </mxGeometry>
        </mxCell>
        <mxCell id="V_Ay7xQyR_psVUGs3vCz-106" value="" style="endArrow=none;html=1;rounded=0;" edge="1" parent="WIyWlLk6GJQsqaUBKTNV-1">
          <mxGeometry width="50" height="50" relative="1" as="geometry">
            <mxPoint x="752" y="1681" as="sourcePoint" />
            <mxPoint x="732" y="1681" as="targetPoint" />
          </mxGeometry>
        </mxCell>
        <mxCell id="V_Ay7xQyR_psVUGs3vCz-107" value="" style="endArrow=none;html=1;rounded=0;" edge="1" parent="WIyWlLk6GJQsqaUBKTNV-1">
          <mxGeometry width="50" height="50" relative="1" as="geometry">
            <mxPoint x="737" y="1727" as="sourcePoint" />
            <mxPoint x="750" y="1697" as="targetPoint" />
          </mxGeometry>
        </mxCell>
        <mxCell id="V_Ay7xQyR_psVUGs3vCz-108" value="" style="endArrow=none;html=1;rounded=0;" edge="1" parent="WIyWlLk6GJQsqaUBKTNV-1">
          <mxGeometry width="50" height="50" relative="1" as="geometry">
            <mxPoint x="749" y="1695" as="sourcePoint" />
            <mxPoint x="767" y="1727" as="targetPoint" />
          </mxGeometry>
        </mxCell>
        <mxCell id="V_Ay7xQyR_psVUGs3vCz-109" value="회원관리" style="ellipse;whiteSpace=wrap;html=1;fillColor=#D1D1D1;fontColor=#333333;strokeColor=#666666;" vertex="1" parent="WIyWlLk6GJQsqaUBKTNV-1">
          <mxGeometry x="572" y="1817" width="88" height="40" as="geometry" />
        </mxCell>
        <mxCell id="V_Ay7xQyR_psVUGs3vCz-110" value="" style="endArrow=classic;html=1;rounded=0;entryX=1;entryY=0.5;entryDx=0;entryDy=0;" edge="1" parent="WIyWlLk6GJQsqaUBKTNV-1" source="V_Ay7xQyR_psVUGs3vCz-30" target="V_Ay7xQyR_psVUGs3vCz-89">
          <mxGeometry width="50" height="50" relative="1" as="geometry">
            <mxPoint x="740" y="1667" as="sourcePoint" />
            <mxPoint x="790" y="1617" as="targetPoint" />
          </mxGeometry>
        </mxCell>
        <mxCell id="V_Ay7xQyR_psVUGs3vCz-111" value="" style="endArrow=classic;html=1;rounded=0;entryX=1;entryY=0;entryDx=0;entryDy=0;" edge="1" parent="WIyWlLk6GJQsqaUBKTNV-1" target="V_Ay7xQyR_psVUGs3vCz-109">
          <mxGeometry width="50" height="50" relative="1" as="geometry">
            <mxPoint x="750" y="1667" as="sourcePoint" />
            <mxPoint x="800" y="1617" as="targetPoint" />
          </mxGeometry>
        </mxCell>
        <mxCell id="V_Ay7xQyR_psVUGs3vCz-112" value="&lt;font style=&quot;font-size: 8px;&quot;&gt;정보수정&lt;/font&gt;" style="ellipse;whiteSpace=wrap;html=1;" vertex="1" parent="WIyWlLk6GJQsqaUBKTNV-1">
          <mxGeometry x="168" y="1745" width="50" height="20" as="geometry" />
        </mxCell>
        <mxCell id="V_Ay7xQyR_psVUGs3vCz-114" value="&lt;font style=&quot;font-size: 9px;&quot;&gt;탈퇴&lt;/font&gt;" style="ellipse;whiteSpace=wrap;html=1;" vertex="1" parent="WIyWlLk6GJQsqaUBKTNV-1">
          <mxGeometry x="275" y="1744" width="50" height="20" as="geometry" />
        </mxCell>
        <mxCell id="V_Ay7xQyR_psVUGs3vCz-115" value="" style="endArrow=classic;html=1;rounded=0;entryX=0;entryY=0;entryDx=0;entryDy=0;exitX=0.5;exitY=1;exitDx=0;exitDy=0;" edge="1" parent="WIyWlLk6GJQsqaUBKTNV-1" source="V_Ay7xQyR_psVUGs3vCz-17" target="V_Ay7xQyR_psVUGs3vCz-75">
          <mxGeometry width="50" height="50" relative="1" as="geometry">
            <mxPoint x="118" y="1494" as="sourcePoint" />
            <mxPoint x="168" y="1444" as="targetPoint" />
          </mxGeometry>
        </mxCell>
        <mxCell id="V_Ay7xQyR_psVUGs3vCz-116" value="" style="endArrow=classic;html=1;rounded=0;entryX=0;entryY=0.5;entryDx=0;entryDy=0;" edge="1" parent="WIyWlLk6GJQsqaUBKTNV-1" target="V_Ay7xQyR_psVUGs3vCz-112">
          <mxGeometry width="50" height="50" relative="1" as="geometry">
            <mxPoint x="112" y="1783" as="sourcePoint" />
            <mxPoint x="162" y="1733" as="targetPoint" />
          </mxGeometry>
        </mxCell>
        <mxCell id="V_Ay7xQyR_psVUGs3vCz-117" value="" style="endArrow=classic;html=1;rounded=0;entryX=0;entryY=0.5;entryDx=0;entryDy=0;" edge="1" parent="WIyWlLk6GJQsqaUBKTNV-1" target="V_Ay7xQyR_psVUGs3vCz-76">
          <mxGeometry width="50" height="50" relative="1" as="geometry">
            <mxPoint x="113" y="1783" as="sourcePoint" />
            <mxPoint x="163" y="1733" as="targetPoint" />
          </mxGeometry>
        </mxCell>
        <mxCell id="V_Ay7xQyR_psVUGs3vCz-118" value="" style="endArrow=classic;html=1;rounded=0;" edge="1" parent="WIyWlLk6GJQsqaUBKTNV-1">
          <mxGeometry width="50" height="50" relative="1" as="geometry">
            <mxPoint x="520" y="1660" as="sourcePoint" />
            <mxPoint x="570" y="1610" as="targetPoint" />
          </mxGeometry>
        </mxCell>
        <mxCell id="V_Ay7xQyR_psVUGs3vCz-119" value="&lt;font color=&quot;#ff2a12&quot;&gt;&lt;b&gt;회원&lt;/b&gt;&lt;/font&gt;" style="ellipse;whiteSpace=wrap;html=1;" vertex="1" parent="WIyWlLk6GJQsqaUBKTNV-1">
          <mxGeometry x="300" y="1784.5" width="70" height="65" as="geometry" />
        </mxCell>
        <mxCell id="V_Ay7xQyR_psVUGs3vCz-120" value="" style="endArrow=classic;html=1;rounded=0;entryX=0.5;entryY=1;entryDx=0;entryDy=0;exitX=0;exitY=0;exitDx=0;exitDy=0;" edge="1" parent="WIyWlLk6GJQsqaUBKTNV-1" source="V_Ay7xQyR_psVUGs3vCz-119" target="V_Ay7xQyR_psVUGs3vCz-114">
          <mxGeometry width="50" height="50" relative="1" as="geometry">
            <mxPoint x="332" y="1784.5" as="sourcePoint" />
            <mxPoint x="382" y="1734.5" as="targetPoint" />
          </mxGeometry>
        </mxCell>
        <mxCell id="V_Ay7xQyR_psVUGs3vCz-121" value="" style="endArrow=classic;html=1;rounded=0;entryX=0.95;entryY=0.671;entryDx=0;entryDy=0;entryPerimeter=0;exitX=0;exitY=0;exitDx=0;exitDy=0;" edge="1" parent="WIyWlLk6GJQsqaUBKTNV-1" source="V_Ay7xQyR_psVUGs3vCz-119" target="V_Ay7xQyR_psVUGs3vCz-76">
          <mxGeometry width="50" height="50" relative="1" as="geometry">
            <mxPoint x="300" y="1814" as="sourcePoint" />
            <mxPoint x="350" y="1764" as="targetPoint" />
          </mxGeometry>
        </mxCell>
        <mxCell id="V_Ay7xQyR_psVUGs3vCz-122" value="" style="endArrow=classic;html=1;rounded=0;entryX=1;entryY=0.5;entryDx=0;entryDy=0;exitX=0;exitY=0;exitDx=0;exitDy=0;" edge="1" parent="WIyWlLk6GJQsqaUBKTNV-1" source="V_Ay7xQyR_psVUGs3vCz-119" target="V_Ay7xQyR_psVUGs3vCz-112">
          <mxGeometry width="50" height="50" relative="1" as="geometry">
            <mxPoint x="310" y="1797" as="sourcePoint" />
            <mxPoint x="360" y="1747" as="targetPoint" />
          </mxGeometry>
        </mxCell>
      </root>
    </mxGraphModel>
  </diagram>
</mxfile>
